<svg width="10" height="9" viewBox="0 0 10 9" fill="none" xmlns="http://www.w3.org/2000/svg">
<g clip-path="url(#clip0_0_23)">
<path d="M6.63153 2.8421C7.38531 2.8421 8.10821 3.14154 8.64121 3.67454C9.17421 4.20753 9.47364 4.93043 9.47364 5.68421V9H7.5789V5.68421C7.5789 5.43295 7.47909 5.19198 7.30143 5.01432C7.12376 4.83665 6.88279 4.73684 6.63153 4.73684C6.38028 4.73684 6.13931 4.83665 5.96164 5.01432C5.78398 5.19198 5.68417 5.43295 5.68417 5.68421V9H3.78943V5.68421C3.78943 4.93043 4.08886 4.20753 4.62186 3.67454C5.15486 3.14154 5.87776 2.8421 6.63153 2.8421Z" fill="#545454"/>
<path d="M1.89474 3.3158H0V9.00001H1.89474V3.3158Z" fill="#545454"/>
<path d="M0.947369 1.89474C1.47059 1.89474 1.89474 1.47059 1.89474 0.947369C1.89474 0.424151 1.47059 0 0.947369 0C0.424151 0 0 0.424151 0 0.947369C0 1.47059 0.424151 1.89474 0.947369 1.89474Z" fill="#545454"/>
</g>
<defs>
<clipPath id="clip0_0_23">
<rect width="10" height="9" fill="white"/>
</clipPath>
</defs>
</svg>
